<svg width="39" height="42" viewBox="0 0 39 42" fill="none" xmlns="http://www.w3.org/2000/svg">
<path d="M22.3318 2.66967L34.8174 9.39764C36.7599 10.4444 37.9711 12.473 37.9711 14.6796V27.3204C37.9711 29.527 36.7599 31.5556 34.8174 32.6024L22.3318 39.3303C20.5551 40.2877 18.4161 40.2877 16.6393 39.3303L4.15377 32.6024C2.21122 31.5556 1 29.527 1 27.3204V14.6796C1 12.473 2.21122 10.4444 4.15377 9.39764L16.6393 2.66967C18.4161 1.71226 20.5551 1.71226 22.3318 2.66967Z" fill="#44A3DF" stroke="white" stroke-width="2"/>
<path d="M16.8087 7.48701L8.69328 11.9956C7.59736 12.6044 7.68757 14.2093 8.84482 14.6914L11.3261 15.7253C11.7432 15.8991 12.2164 15.8756 12.6142 15.6614L17.8275 12.8542C18.2418 12.6311 18.5274 12.2266 18.599 11.7616L19.0198 9.02633C19.2094 7.79351 17.8991 6.88125 16.8087 7.48701Z" fill="white"/>
</svg>
