<svg width="41" height="36" viewBox="0 0 41 36" fill="none" xmlns="http://www.w3.org/2000/svg">
<path d="M37.6265 5.32746C39.666 7.51487 40.0127 10.0702 39.2471 12.8692C38.4666 15.7227 36.5355 18.7684 34.0948 21.6998C29.2245 27.5491 22.5972 32.6262 20.2322 34.3585C20.0708 34.4767 19.8854 34.4721 19.7295 34.3448C17.4912 32.5153 11.2658 27.2197 6.58347 21.2834C4.23723 18.3087 2.33578 15.2438 1.4826 12.4254C0.637306 9.63304 0.851508 7.22106 2.51244 5.2993C6.0231 1.23735 9.22162 0.624085 11.7704 1.17089C14.4347 1.7425 16.6401 3.63346 17.9552 5.03997C19.0031 6.16066 20.8514 6.24457 21.9937 5.21319C23.3954 3.94754 25.7253 2.24197 28.4733 1.71875C31.1335 1.21227 34.3227 1.78419 37.6265 5.32746Z" fill="#D43F3A" stroke="white" stroke-width="2"/>
<circle cx="10.2559" cy="9.79785" r="4" fill="white" fill-opacity="0.3"/>
</svg>
